<svg width="1508" height="1100" xmlns="http://www.w3.org/2000/svg" xmlns:xlink="http://www.w3.org/1999/xlink" xml:space="preserve" overflow="hidden"><defs><clipPath id="clip0"><rect x="219" y="55" width="1508" height="1100"/></clipPath></defs><g clip-path="url(#clip0)" transform="translate(-219 -55)"><rect x="221.5" y="57.4999" width="1503" height="1095" stroke="#2F528F" stroke-width="4.58333" stroke-miterlimit="8" fill="#FFFFFF"/><path d="M926.5 641.75C926.5 648.515 948.438 654 975.5 654 1002.56 654 1024.5 648.515 1024.5 641.75L1024.5 771.25C1024.5 778.015 1002.56 783.5 975.5 783.5 948.438 783.5 926.5 778.015 926.5 771.25Z" fill="#7F7F7F" fill-rule="evenodd"/><path d="M926.5 641.75C926.5 634.984 948.438 629.5 975.5 629.5 1002.56 629.5 1024.5 634.984 1024.5 641.75 1024.5 648.515 1002.56 654 975.5 654 948.438 654 926.5 648.515 926.5 641.75Z" fill="#B2B2B2" fill-rule="evenodd"/><path d="M1024.5 641.75C1024.5 648.515 1002.56 654 975.5 654 948.438 654 926.5 648.515 926.5 641.75 926.5 634.984 948.438 629.5 975.5 629.5 1002.56 629.5 1024.5 634.984 1024.5 641.75L1024.5 771.25C1024.5 778.015 1002.56 783.5 975.5 783.5 948.438 783.5 926.5 778.015 926.5 771.25L926.5 641.75" stroke="#000000" stroke-width="4.58333" stroke-miterlimit="8" fill="none" fill-rule="evenodd"/><path d="M0 129 0 0 45 129Z" stroke="#000000" stroke-width="4.58333" stroke-miterlimit="8" fill="#7F7F7F" fill-rule="evenodd" transform="matrix(1 -1.22465e-16 -1.22465e-16 -1 1570.5 705.5)"/><path d="M0 7.75C4.9334e-15 12.0302 13.8792 15.5 31 15.5 48.1209 15.5 62 12.0302 62 7.75L61.9999 147.25C61.9999 151.53 48.1207 155 30.9998 155 13.879 155-0.00016951 151.53-0.00016951 147.25Z" fill="#7F7F7F" fill-rule="evenodd" transform="matrix(-1 0 0 1 1579.5 567.5)"/><path d="M0 7.75C-1.48002e-14 3.46979 13.8792-3.70004e-15 31-4.93339e-15 48.1209-6.16674e-15 62 3.46979 62 7.75 62 12.0302 48.1209 15.5 31 15.5 13.8792 15.5-1.97336e-14 12.0302 0 7.75Z" fill="#B2B2B2" fill-rule="evenodd" transform="matrix(-1 0 0 1 1579.5 567.5)"/><path d="M61.9999 7.75C61.9999 12.0302 48.1207 15.5 30.9998 15.5 13.879 15.5-0.00016951 12.0302-0.00016951 7.75-0.00016951 3.46979 13.879-2.4667e-15 30.9998-2.4667e-15 48.1207-3.70004e-15 61.9999 3.46979 61.9999 7.75L61.9999 147.25C61.9999 151.53 48.1207 155 30.9998 155 13.879 155-0.00016951 151.53-0.00016951 147.25L0 7.75" stroke="#000000" stroke-width="4.58333" stroke-miterlimit="8" fill="none" fill-rule="evenodd" transform="matrix(-1 0 0 1 1579.5 567.5)"/><path d="M377.5 585.5 377.5 714.5 332.5 585.5Z" stroke="#000000" stroke-width="4.58333" stroke-miterlimit="8" fill="#7F7F7F" fill-rule="evenodd"/><path d="M365.5 585.25C365.5 589.53 379.379 593 396.5 593 413.621 593 427.5 589.53 427.5 585.25L427.5 723.75C427.5 728.03 413.621 731.5 396.5 731.5 379.379 731.5 365.5 728.03 365.5 723.75Z" fill="#7F7F7F" fill-rule="evenodd"/><path d="M365.5 585.25C365.5 580.97 379.379 577.5 396.5 577.5 413.621 577.5 427.5 580.97 427.5 585.25 427.5 589.53 413.621 593 396.5 593 379.379 593 365.5 589.53 365.5 585.25Z" fill="#B2B2B2" fill-rule="evenodd"/><path d="M427.5 585.25C427.5 589.53 413.621 593 396.5 593 379.379 593 365.5 589.53 365.5 585.25 365.5 580.97 379.379 577.5 396.5 577.5 413.621 577.5 427.5 580.97 427.5 585.25L427.5 723.75C427.5 728.03 413.621 731.5 396.5 731.5 379.379 731.5 365.5 728.03 365.5 723.75L365.5 585.25" stroke="#000000" stroke-width="4.58333" stroke-miterlimit="8" fill="none" fill-rule="evenodd"/><path d="M925.5 437.813C925.5 444.06 947.886 449.125 975.5 449.125 1003.11 449.125 1025.5 444.06 1025.5 437.813L1025.5 536.188C1025.5 542.435 1003.11 547.5 975.5 547.5 947.886 547.5 925.5 542.435 925.5 536.188Z" fill="#7F7F7F" fill-rule="evenodd"/><path d="M925.5 437.813C925.5 431.565 947.886 426.5 975.5 426.5 1003.11 426.5 1025.5 431.565 1025.5 437.813 1025.5 444.06 1003.11 449.125 975.5 449.125 947.886 449.125 925.5 444.06 925.5 437.813Z" fill="#B2B2B2" fill-rule="evenodd"/><path d="M1025.5 437.813C1025.5 444.06 1003.11 449.125 975.5 449.125 947.886 449.125 925.5 444.06 925.5 437.813 925.5 431.565 947.886 426.5 975.5 426.5 1003.11 426.5 1025.5 431.565 1025.5 437.813L1025.5 536.188C1025.5 542.435 1003.11 547.5 975.5 547.5 947.886 547.5 925.5 542.435 925.5 536.188L925.5 437.813" stroke="#000000" stroke-width="4.58333" stroke-miterlimit="8" fill="none" fill-rule="evenodd"/><path d="M929 538 929 441 1029 538Z" fill="#A3A3A3" fill-rule="evenodd" fill-opacity="0.301961"/><path d="M1517.5 478.813C1517.5 485.06 1539.89 490.125 1567.5 490.125 1595.11 490.125 1617.5 485.06 1617.5 478.813L1617.5 577.188C1617.5 583.435 1595.11 588.5 1567.5 588.5 1539.89 588.5 1517.5 583.435 1517.5 577.188Z" fill="#7F7F7F" fill-rule="evenodd"/><path d="M1517.5 478.813C1517.5 472.565 1539.89 467.5 1567.5 467.5 1595.11 467.5 1617.5 472.565 1617.5 478.813 1617.5 485.06 1595.11 490.125 1567.5 490.125 1539.89 490.125 1517.5 485.06 1517.5 478.813Z" fill="#B2B2B2" fill-rule="evenodd"/><path d="M1617.5 478.813C1617.5 485.06 1595.11 490.125 1567.5 490.125 1539.89 490.125 1517.5 485.06 1517.5 478.813 1517.5 472.565 1539.89 467.5 1567.5 467.5 1595.11 467.5 1617.5 472.565 1617.5 478.813L1617.5 577.188C1617.5 583.435 1595.11 588.5 1567.5 588.5 1539.89 588.5 1517.5 583.435 1517.5 577.188L1517.5 478.813" stroke="#000000" stroke-width="4.58333" stroke-miterlimit="8" fill="none" fill-rule="evenodd"/><path d="M1522 583 1522 483 1617 583Z" fill="#A3A3A3" fill-rule="evenodd" fill-opacity="0.301961"/><path d="M1279.75 563.5C1282.65 563.5 1285 554.098 1285 542.5 1285 530.902 1282.65 521.5 1279.75 521.5L1531.25 521.5C1534.15 521.5 1536.5 530.902 1536.5 542.5 1536.5 554.098 1534.15 563.5 1531.25 563.5Z" fill="#7F7F7F" fill-rule="evenodd"/><path d="M1279.75 563.5C1276.85 563.5 1274.5 554.098 1274.5 542.5 1274.5 530.902 1276.85 521.5 1279.75 521.5 1282.65 521.5 1285 530.902 1285 542.5 1285 554.098 1282.65 563.5 1279.75 563.5Z" fill="#B2B2B2" fill-rule="evenodd"/><path d="M1279.75 521.5C1282.65 521.5 1285 530.902 1285 542.5 1285 554.098 1282.65 563.5 1279.75 563.5 1276.85 563.5 1274.5 554.098 1274.5 542.5 1274.5 530.902 1276.85 521.5 1279.75 521.5L1531.25 521.5C1534.15 521.5 1536.5 530.902 1536.5 542.5 1536.5 554.098 1534.15 563.5 1531.25 563.5L1279.75 563.5" stroke="#000000" stroke-width="4.58333" stroke-miterlimit="8" fill="none" fill-rule="evenodd"/><path d="M996.5 611.14C996.5 598.239 987.098 587.78 975.5 587.78 963.902 587.78 954.5 598.239 954.5 611.14L954.5 529.86C954.5 516.958 963.902 506.5 975.5 506.5 987.098 506.5 996.5 516.958 996.5 529.86Z" fill="#7F7F7F" fill-rule="evenodd"/><path d="M996.5 611.14C996.5 624.042 987.098 634.5 975.5 634.5 963.902 634.5 954.5 624.042 954.5 611.14 954.5 598.239 963.902 587.78 975.5 587.78 987.098 587.78 996.5 598.239 996.5 611.14Z" fill="#B2B2B2" fill-rule="evenodd"/><path d="M954.5 611.14C954.5 598.239 963.902 587.78 975.5 587.78 987.098 587.78 996.5 598.239 996.5 611.14 996.5 624.042 987.098 634.5 975.5 634.5 963.902 634.5 954.5 624.042 954.5 611.14L954.5 529.86C954.5 516.958 963.902 506.5 975.5 506.5 987.098 506.5 996.5 516.958 996.5 529.86L996.5 611.14" stroke="#000000" stroke-width="4.58333" stroke-miterlimit="8" fill="none" fill-rule="evenodd"/><path d="M827.5 573.741C827.5 578.845 891.299 582.983 970 582.983 1048.7 582.983 1112.5 578.845 1112.5 573.741L1112.5 615.259C1112.5 620.363 1048.7 624.5 970 624.5 891.299 624.5 827.5 620.363 827.5 615.259Z" fill="#7F7F7F" fill-rule="evenodd"/><path d="M827.5 573.741C827.5 568.637 891.299 564.5 970 564.5 1048.7 564.5 1112.5 568.637 1112.5 573.741 1112.5 578.845 1048.7 582.983 970 582.983 891.299 582.983 827.5 578.845 827.5 573.741Z" fill="#B2B2B2" fill-rule="evenodd"/><path d="M1112.5 573.741C1112.5 578.845 1048.7 582.983 970 582.983 891.299 582.983 827.5 578.845 827.5 573.741 827.5 568.637 891.299 564.5 970 564.5 1048.7 564.5 1112.5 568.637 1112.5 573.741L1112.5 615.259C1112.5 620.363 1048.7 624.5 970 624.5 891.299 624.5 827.5 620.363 827.5 615.259L827.5 573.741" stroke="#000000" stroke-width="4.58333" stroke-miterlimit="8" fill="none" fill-rule="evenodd"/><path d="M655.5 515C655.5 529.635 800.336 541.5 979 541.5 1157.66 541.5 1302.5 529.635 1302.5 515L1302.5 568C1302.5 582.635 1157.66 594.5 979 594.5 800.336 594.5 655.5 582.635 655.5 568Z" fill="#7F7F7F" fill-rule="evenodd"/><path d="M655.5 515C655.5 500.364 800.336 488.5 979 488.5 1157.66 488.5 1302.5 500.364 1302.5 515 1302.5 529.635 1157.66 541.5 979 541.5 800.336 541.5 655.5 529.635 655.5 515Z" fill="#B2B2B2" fill-rule="evenodd"/><path d="M1302.5 515C1302.5 529.635 1157.66 541.5 979 541.5 800.336 541.5 655.5 529.635 655.5 515 655.5 500.364 800.336 488.5 979 488.5 1157.66 488.5 1302.5 500.364 1302.5 515L1302.5 568C1302.5 582.635 1157.66 594.5 979 594.5 800.336 594.5 655.5 582.635 655.5 568L655.5 515" stroke="#000000" stroke-width="4.58333" stroke-miterlimit="8" fill="none" fill-rule="evenodd"/><path d="M706 514C706 502.402 829.122 493 981 493 1132.88 493 1256 502.402 1256 514 1256 525.598 1132.88 535 981 535 829.122 535 706 525.598 706 514Z" fill="#A9A9A9" fill-rule="evenodd"/><path d="M925.5 545.813C925.5 552.06 947.886 557.125 975.5 557.125 1003.11 557.125 1025.5 552.06 1025.5 545.813L1025.5 645.188C1025.5 651.435 1003.11 656.5 975.5 656.5 947.886 656.5 925.5 651.435 925.5 645.188Z" fill="#7F7F7F" fill-rule="evenodd"/><path d="M925.5 545.813C925.5 539.565 947.886 534.5 975.5 534.5 1003.11 534.5 1025.5 539.565 1025.5 545.813 1025.5 552.06 1003.11 557.125 975.5 557.125 947.886 557.125 925.5 552.06 925.5 545.813Z" fill="#B2B2B2" fill-rule="evenodd"/><path d="M1025.5 545.813C1025.5 552.06 1003.11 557.125 975.5 557.125 947.886 557.125 925.5 552.06 925.5 545.813 925.5 539.565 947.886 534.5 975.5 534.5 1003.11 534.5 1025.5 539.565 1025.5 545.813L1025.5 645.188C1025.5 651.435 1003.11 656.5 975.5 656.5 947.886 656.5 925.5 651.435 925.5 645.188L925.5 545.813" stroke="#000000" stroke-width="4.58333" stroke-miterlimit="8" fill="none" fill-rule="evenodd"/><path d="M420.75 571.5C423.649 571.5 426 562.098 426 550.5 426 538.902 423.649 529.5 420.75 529.5L673.25 529.5C676.15 529.5 678.5 538.902 678.5 550.5 678.5 562.098 676.15 571.5 673.25 571.5Z" fill="#7F7F7F" fill-rule="evenodd"/><path d="M420.75 571.5C417.851 571.5 415.5 562.098 415.5 550.5 415.5 538.902 417.851 529.5 420.75 529.5 423.649 529.5 426 538.902 426 550.5 426 562.098 423.649 571.5 420.75 571.5Z" fill="#B2B2B2" fill-rule="evenodd"/><path d="M420.75 529.5C423.649 529.5 426 538.902 426 550.5 426 562.098 423.649 571.5 420.75 571.5 417.851 571.5 415.5 562.098 415.5 550.5 415.5 538.902 417.851 529.5 420.75 529.5L673.25 529.5C676.15 529.5 678.5 538.902 678.5 550.5 678.5 562.098 676.15 571.5 673.25 571.5L420.75 571.5" stroke="#000000" stroke-width="4.58333" stroke-miterlimit="8" fill="none" fill-rule="evenodd"/><path d="M328.5 485.812C328.5 492.06 350.886 497.125 378.5 497.125 406.114 497.125 428.5 492.06 428.5 485.812L428.5 585.187C428.5 591.435 406.114 596.5 378.5 596.5 350.886 596.5 328.5 591.435 328.5 585.187Z" fill="#7F7F7F" fill-rule="evenodd"/><path d="M328.5 485.812C328.5 479.565 350.886 474.5 378.5 474.5 406.114 474.5 428.5 479.565 428.5 485.812 428.5 492.06 406.114 497.125 378.5 497.125 350.886 497.125 328.5 492.06 328.5 485.812Z" fill="#B2B2B2" fill-rule="evenodd"/><path d="M428.5 485.812C428.5 492.06 406.114 497.125 378.5 497.125 350.886 497.125 328.5 492.06 328.5 485.812 328.5 479.565 350.886 474.5 378.5 474.5 406.114 474.5 428.5 479.565 428.5 485.812L428.5 585.187C428.5 591.435 406.114 596.5 378.5 596.5 350.886 596.5 328.5 591.435 328.5 585.187L328.5 485.812" stroke="#000000" stroke-width="4.58333" stroke-miterlimit="8" fill="none" fill-rule="evenodd"/><path d="M332 589 332 493 429 589Z" fill="#A3A3A3" fill-rule="evenodd" fill-opacity="0.301961"/><path d="M929 653 929 550 1025 653Z" fill="#A3A3A3" fill-rule="evenodd" fill-opacity="0.301961"/><path d="M938.834 712 1013.17 712C1018.6 712 1023 716.403 1023 721.833L1023 771 929 771 929 721.833C929 716.403 933.403 712 938.834 712Z" fill="#A3A3A3" fill-rule="evenodd" fill-opacity="0.301961"/></g></svg>